<svg width="104" height="104" viewBox="0 0 104 104" fill="none" xmlns="http://www.w3.org/2000/svg">
<path d="M82.3333 13H21.6667C16.8802 13 13 16.8802 13 21.6667V82.3333C13 87.1198 16.8802 91 21.6667 91H82.3333C87.1198 91 91 87.1198 91 82.3333V21.6667C91 16.8802 87.1198 13 82.3333 13Z" stroke="black" stroke-width="2" stroke-linecap="round" stroke-linejoin="round"/>
<path d="M36.8335 43.3333C40.4233 43.3333 43.3335 40.4232 43.3335 36.8333C43.3335 33.2435 40.4233 30.3333 36.8335 30.3333C33.2436 30.3333 30.3335 33.2435 30.3335 36.8333C30.3335 40.4232 33.2436 43.3333 36.8335 43.3333Z" stroke="black" stroke-width="2" stroke-linecap="round" stroke-linejoin="round"/>
<path d="M90.9998 65L69.3332 43.3333L21.6665 91" stroke="black" stroke-width="2" stroke-linecap="round" stroke-linejoin="round"/>
</svg>
