<svg width="21" height="21" viewBox="0 0 21 21" fill="none" xmlns="http://www.w3.org/2000/svg">
<path d="M20.0222 10.4425C20.0222 9.60255 19.954 8.98963 19.8065 8.354H10.2153V12.145H15.8452C15.7317 13.0872 15.1188 14.506 13.7567 15.4594L13.7376 15.5863L16.7701 17.9356L16.9802 17.9566C18.9098 16.1745 20.0222 13.5525 20.0222 10.4425Z" fill="#4285F4"/>
<path d="M10.2157 20.4309C12.9738 20.4309 15.2893 19.5228 16.9806 17.9565L13.757 15.4593C12.8944 16.0609 11.7366 16.4809 10.2157 16.4809C7.51429 16.4809 5.2215 14.6989 4.40418 12.2358L4.28438 12.246L1.13108 14.6864L1.08984 14.801C2.76971 18.1381 6.22028 20.4309 10.2157 20.4309Z" fill="#34A853"/>
<path d="M4.40397 12.2358C4.18831 11.6002 4.0635 10.9191 4.0635 10.2154C4.0635 9.51165 4.18831 8.83065 4.39262 8.19502L4.38691 8.05965L1.19409 5.58008L1.08963 5.62977C0.397273 7.01455 0 8.5696 0 10.2154C0 11.8613 0.397273 13.4162 1.08963 14.801L4.40397 12.2358Z" fill="#FBBC05"/>
<path d="M10.2157 3.94996C12.1339 3.94996 13.4279 4.77855 14.1657 5.47098L17.0487 2.65603C15.2781 1.0102 12.9738 0 10.2157 0C6.22028 0 2.76971 2.29279 1.08984 5.62982L4.39284 8.19508C5.2215 5.73202 7.51429 3.94996 10.2157 3.94996Z" fill="#EB4335"/>
</svg>
