<svg width="21" height="21" viewBox="0 0 21 21" fill="none" xmlns="http://www.w3.org/2000/svg">
<path d="M19.49 14.392V5.15367C19.49 4.96469 19.6432 4.81152 19.8321 4.81152H19.1478C18.9588 4.81152 18.8057 4.96473 18.8057 5.15367V14.392C18.8057 14.581 18.9589 14.7341 19.1478 14.7341H19.8321C19.6432 14.7341 19.49 14.5809 19.49 14.392Z" fill="#E5E5E5"/>
<path d="M18.8188 0H1.71081C0.767454 0 0 0.767454 0 1.71081V18.8188C0 19.7621 0.767454 20.5296 1.71081 20.5296H18.8188C19.7621 20.5296 20.5296 19.7621 20.5296 18.8188V1.71081C20.5296 0.767454 19.7621 0 18.8188 0Z" fill="#3CAFE6"/>
<path d="M6.15903 7.52759H3.42174C3.23276 7.52759 3.07959 7.6808 3.07959 7.86973V17.1081C3.07959 17.297 3.2328 17.4502 3.42174 17.4502H6.15903C6.34801 17.4502 6.50118 17.297 6.50118 17.1081V7.86973C6.50118 7.6808 6.34801 7.52759 6.15903 7.52759Z" fill="white"/>
<path d="M16.3627 8.41148C15.7059 7.84973 14.8551 7.52759 14.0285 7.52759C12.6953 7.52759 11.8397 7.96144 11.2912 8.50335V7.86973C11.2912 7.68076 11.138 7.52759 10.9491 7.52759H8.21178C8.0228 7.52759 7.86963 7.6808 7.86963 7.86973V17.1081C7.86963 17.297 8.02284 17.4502 8.21178 17.4502H10.9491C11.138 17.4502 11.2912 17.297 11.2912 17.1081V12.66C11.2912 11.8146 12.0016 11.2914 12.6598 11.2914C13.4529 11.2914 14.0285 11.867 14.0285 12.66V17.1081C14.0285 17.297 14.1817 17.4502 14.3706 17.4502H17.1079C17.2969 17.4502 17.4501 17.297 17.4501 17.1081V10.607C17.4501 9.79094 17.0639 9.01121 16.3627 8.41148Z" fill="white"/>
<path d="M8.55392 17.1081V7.86973C8.55392 7.68076 8.70713 7.52759 8.89607 7.52759H8.21178C8.0228 7.52759 7.86963 7.6808 7.86963 7.86973V17.1081C7.86963 17.297 8.02284 17.4502 8.21178 17.4502H8.89611C8.70713 17.4502 8.55392 17.297 8.55392 17.1081Z" fill="#E5E5E5"/>
<path d="M14.7129 17.108V12.6599C14.7129 11.8669 14.1373 11.2913 13.3443 11.2913C13.236 11.2913 13.1263 11.3057 13.0186 11.3331C13.6207 11.4789 14.0286 11.9923 14.0286 12.6599V17.108C14.0286 17.2969 14.1818 17.4501 14.3707 17.4501H15.0551C14.8661 17.4501 14.7129 17.2969 14.7129 17.108Z" fill="#E5E5E5"/>
<path d="M4.7904 3.07935C3.84704 3.07935 3.07959 3.8468 3.07959 4.79016C3.07959 5.73352 3.84704 6.50097 4.7904 6.50097C5.73376 6.50097 6.50122 5.73352 6.50122 4.79016C6.50122 3.8468 5.73372 3.07935 4.7904 3.07935Z" fill="white"/>
<path d="M5.13259 5.81672C4.18927 5.81672 3.42178 5.04926 3.42178 4.10591C3.42178 3.96733 3.43874 3.83269 3.47001 3.70361C3.22622 3.99929 3.07959 4.37796 3.07959 4.79024C3.07959 5.73356 3.84704 6.50105 4.7904 6.50105C5.59515 6.50105 6.2715 5.94234 6.45294 5.19253C6.13898 5.57349 5.66367 5.81672 5.13259 5.81672Z" fill="#E5E5E5"/>
</svg>
